<?xml version="1.0" encoding="utf-8"?>
<!-- Generator: Adobe Illustrator 16.0.0, SVG Export Plug-In . SVG Version: 6.00 Build 0)  -->
<!DOCTYPE svg PUBLIC "-//W3C//DTD SVG 1.1//EN" "http://www.w3.org/Graphics/SVG/1.1/DTD/svg11.dtd">
<svg version="1.1" id="Layer_1" xmlns="http://www.w3.org/2000/svg" xmlns:xlink="http://www.w3.org/1999/xlink" x="0px" y="0px"
	 width="60px" height="19px" viewBox="0 0 60 19" enable-background="new 0 0 60 19" xml:space="preserve">
<path fill="#2D2D2D" d="M57.449,6.153C58.858,6.153,60,5.011,60,3.603s-1.142-2.551-2.551-2.551c-1.408,0-2.55,1.142-2.55,2.551
	S56.041,6.153,57.449,6.153z"/>
<path fill="#2D2D2D" d="M53.914,10.242H40.935c0.097,3.229,2.101,5.037,4.94,5.037c2.324,0,3.906-1.389,4.326-3.261h3.583
	c-0.517,4.101-4.196,6.327-7.909,6.327c-5.264,0-8.718-3.034-8.718-8.909c0-5.425,3.39-8.783,8.523-8.783
	c5.101,0,8.233,3.713,8.233,8.297V10.242z M40.935,8.015h9.104c-0.193-2.679-1.904-4.293-4.52-4.293
	C43.065,3.721,41.129,5.174,40.935,8.015L40.935,8.015z"/>
<path fill="#2D2D2D" d="M19.83,12.406h3.875c0.129,1.969,1.646,3.067,4.326,3.067c2.195,0,3.552-0.807,3.552-2.163
	c0-1.001-0.582-1.55-2.293-1.938l-4.197-0.904c-3.035-0.613-4.875-2.195-4.875-4.715c0-3.1,2.809-5.1,7.265-5.1
	c4.875,0,7.749,2.195,7.749,5.94h-3.778c0-1.905-1.42-3.067-3.842-3.067c-2.195,0-3.519,0.808-3.519,2.13
	c0,0.904,0.775,1.614,2.163,1.937l4.391,0.937c3.261,0.71,4.843,2.13,4.843,4.616c0,3.262-2.776,5.198-7.49,5.198
	C22.864,18.346,19.958,16.215,19.83,12.406z"/>
<path fill="#2D2D2D" d="M13.262,0.911H17.2v16.917h-3.938V0.911z"/>
<path fill="#2D2D2D" d="M4.068,7.53c0.743-4.843,2.454-6.619,7.103-6.619v3.326C5.973,4.56,4.036,6.206,3.938,11.275v6.553H0V1.169
	h3.81l0.129,6.36L4.068,7.53z"/>
</svg>
